<svg xmlns="http://www.w3.org/2000/svg" version="1.1" xmlns:xlink="http://www.w3.org/1999/xlink" xmlns:svgjs="http://svgjs.dev/svgjs" width="1000" height="1000" viewBox="0 0 1000 1000"><rect width="1000" height="1000" fill="#000000"></rect><g transform="matrix(0.7,0,0,0.7,149.57577867380746,282.13891781376526)"><svg viewBox="0 0 396 247" data-background-color="#2a160c" preserveAspectRatio="xMidYMid meet" height="623" width="1000" xmlns="http://www.w3.org/2000/svg" xmlns:xlink="http://www.w3.org/1999/xlink"><g id="tight-bounds" transform="matrix(1,0,0,1,0.23998806453175803,-0.09999999999999432)"><svg viewBox="0 0 395.52 247.2" height="247.2" width="395.52"><g><svg></svg></g><g><svg viewBox="0 0 395.52 247.2" height="247.2" width="395.52"><g><g><path xmlns="http://www.w3.org/2000/svg" d="M267.663 11.085c7.936-5.817 16.526-9.514 25.77-11.092l9.334 89.63-25.092 0-5.548-55.068-21.981 55.068-13.969 0zM315.415 211.089c0.676 8.883 2.976 15.173 6.899 18.871 3.968 3.698 11.138 5.93 21.509 6.696l-1.015 4.126c-12.671-0.316-22.523-0.203-29.557 0.338-7.034 0.541-14.519 2.142-22.456 4.802l-1.15-1.826c2.074-3.517 2.683-9.357 1.827-17.518l-6.952-69.001 25.323 0zM187.242 247.207l-11.566-5.411c-0.406-7.846-3.54-18.916-9.401-33.21l-23.046-51.009h23.624c11.759 26.015 19.232 42.365 22.419 49.048l19.663-49.048h14.086zM90.859 41.657l-5.266 47.966h-15.52l7.867-68.325c-3.066-2.525-6.854-3.855-11.363-3.99-4.509-0.18-8.815 0.225-12.918 1.217l-1.962-3.314c16.413-9.244 31.384-13.866 44.911-13.866 2.496 5.585 15.712 35.011 39.648 88.278l-23.727 0zM71.515 217.853c-0.451 3.833-0.158 6.944 0.879 9.334 1.082 2.345 3.63 4.532 7.643 6.56 4.013 2.029 9.988 3.833 17.924 5.411l-0.676 2.976c-18.082-1.353-32.173-1.804-42.274-1.352-0.902-0.902-1.556-2.007-1.961-3.315l9.199-79.89h15.884z" fill="#ffffff" fill-rule="nonzero" stroke="none" stroke-width="1" stroke-linecap="butt" stroke-linejoin="miter" stroke-miterlimit="10" stroke-dasharray="" stroke-dashoffset="0" font-family="none" font-weight="none" font-size="none" text-anchor="none" style="mix-blend-mode: normal" data-fill-palette-color="tertiary"></path></g></g><g transform="matrix(1,0,0,1,0,98.27544278671517)"><svg viewBox="0 0 395.52 50.64911442656964" height="50.64911442656964" width="395.52"><g><svg viewBox="0 0 475.5136911363819 60.89286851174935" height="50.64911442656964" width="395.52"><g transform="matrix(1,0,0,1,79.99369113638194,8.415729295039167)"><svg viewBox="0 0 395.52 44.061409921671014" height="44.061409921671014" width="395.52"><g id="textblocktransform"><svg viewBox="0 0 395.52 44.061409921671014" height="44.061409921671014" width="395.52" id="textblock"><g><svg viewBox="0 0 395.52 44.061409921671014" height="44.061409921671014" width="395.52"><g transform="matrix(1,0,0,1,0,0)"><svg width="395.52" viewBox="3.759999990463257 -36.5 336.5999755859375 37.5" height="44.061409921671014" data-palette-color="#883d1a"><path d="M24.1-5.05L35.69-33.96Q37.45-35.25 39.5-35.6L39.5-35.6 42.75-4.39Q42.9-2.42 43.77-1.6 44.65-0.78 46.95-0.61L46.95-0.61 46.8 0Q43.99-0.07 42.43 0.05 40.87 0.17 39.11 0.76L39.11 0.76 38.94 0.49Q39.4-0.29 39.21-2.1L39.21-2.1 36.35-30.49 23.8 0.95 22.09 0.15Q22-1.59 20.7-4.76L20.7-4.76 9.55-29.44 6.69-3.39Q6.59-2.54 6.82-2.01 7.06-1.49 7.95-1.04 8.84-0.59 10.6-0.24L10.6-0.24 10.5 0.2Q6.49-0.1 4.25 0L4.25 0Q4.05-0.2 3.96-0.49L3.96-0.49 7.64-32.45Q6.96-33.01 5.96-33.04 4.96-33.08 4.05-32.86L4.05-32.86 3.76-33.35Q7.4-35.4 10.4-35.4L10.4-35.4Q10.99-34.08 16.98-20.75 22.97-7.42 24.1-5.05L24.1-5.05ZM70.8-36.5L70.8-36.5Q78.95-36.5 83.35-31.35 87.74-26.2 87.74-17.09L87.74-17.09Q87.74-13.23 86.37-9.84 85.01-6.45 82.69-4.08 80.37-1.71 77.23-0.35 74.09 1 70.65 1L70.65 1Q67.04 1 63.94-0.28 60.84-1.56 58.55-3.93 56.27-6.3 54.98-9.9 53.68-13.5 53.68-17.9L53.68-17.9Q53.68-21.78 55.06-25.24 56.44-28.71 58.75-31.16 61.06-33.62 64.21-35.06 67.36-36.5 70.8-36.5ZM57.79-18.14L57.79-18.14Q57.79-14.55 58.55-11.56 59.32-8.57 60.62-6.52 61.91-4.47 63.66-3.05 65.4-1.64 67.33-0.99 69.26-0.34 71.34-0.34L71.34-0.34Q74.34-0.34 76.72-1.66 79.1-2.98 80.59-5.26 82.08-7.54 82.86-10.5 83.64-13.45 83.64-16.85L83.64-16.85Q83.64-21.26 82.53-24.8 81.42-28.34 79.54-30.53 77.66-32.71 75.28-33.86 72.9-35.01 70.24-35.01L70.24-35.01Q67.23-35.01 64.83-33.63 62.42-32.25 60.91-29.91 59.4-27.56 58.59-24.55 57.79-21.53 57.79-18.14ZM111.84-36.5L111.84-36.5Q119.99-36.5 124.38-31.35 128.78-26.2 128.78-17.09L128.78-17.09Q128.78-13.23 127.41-9.84 126.04-6.45 123.73-4.08 121.41-1.71 118.27-0.35 115.13 1 111.69 1L111.69 1Q108.08 1 104.98-0.28 101.87-1.56 99.59-3.93 97.31-6.3 96.02-9.9 94.72-13.5 94.72-17.9L94.72-17.9Q94.72-21.78 96.1-25.24 97.48-28.71 99.79-31.16 102.09-33.62 105.24-35.06 108.39-36.5 111.84-36.5ZM98.82-18.14L98.82-18.14Q98.82-14.55 99.59-11.56 100.36-8.57 101.66-6.52 102.95-4.47 104.69-3.05 106.44-1.64 108.37-0.99 110.3-0.34 112.37-0.34L112.37-0.34Q115.38-0.34 117.76-1.66 120.14-2.98 121.63-5.26 123.12-7.54 123.9-10.5 124.68-13.45 124.68-16.85L124.68-16.85Q124.68-21.26 123.57-24.8 122.46-28.34 120.58-30.53 118.7-32.71 116.32-33.86 113.94-35.01 111.27-35.01L111.27-35.01Q108.27-35.01 105.87-33.63 103.46-32.25 101.95-29.91 100.43-27.56 99.63-24.55 98.82-21.53 98.82-18.14ZM143.67-32.54L143.67-32.54 143.67-2.15Q144.99-1.98 146.21-1.89 147.43-1.81 148.6-1.81L148.6-1.81Q152.73-1.81 156-2.87 159.27-3.93 161.54-6.09 163.81-8.25 165.02-11.49 166.23-14.72 166.23-19.09L166.23-19.09Q166.2-21.97 165.5-24.19 164.79-26.42 163.52-28.06 162.25-29.71 160.53-30.82 158.81-31.93 156.79-32.63 154.78-33.33 152.54-33.62 150.31-33.91 148.01-33.91L148.01-33.91Q146.92-33.91 145.82-33.84 144.72-33.76 143.57-33.64L143.57-33.64Q143.62-33.3 143.64-33.02 143.67-32.74 143.67-32.54ZM135.61-33.74L135.51-34.45Q137.64-34.72 139.32-34.92 141.01-35.13 142.6-35.28 144.18-35.42 145.87-35.5 147.55-35.57 149.68-35.57L149.68-35.57Q151.51-35.57 153.02-35.47 154.53-35.38 155.89-35.14 157.24-34.91 158.55-34.53 159.86-34.16 161.3-33.62L161.3-33.62Q163.22-32.89 164.85-31.65 166.47-30.42 167.64-28.64 168.82-26.86 169.46-24.49 170.11-22.12 170.11-19.09L170.11-19.09Q170.09-15.5 169.18-12.7 168.28-9.89 166.67-7.76 165.06-5.64 162.85-4.15 160.64-2.66 158.05-1.73 155.46-0.81 152.58-0.39 149.7 0.02 146.75 0.02L146.75 0.02Q146.5 0.02 145.15 0.04 143.79 0.05 142.25 0.17 140.72 0.29 139.57 0.44L139.57 0.44 139.42 0.2Q139.91-0.51 139.91-2.39L139.91-2.39 139.91-28.1Q139.91-29.71 139.76-30.8 139.62-31.88 139.23-32.54 138.84-33.2 138.13-33.48 137.42-33.76 136.78-33.76 136.15-33.76 135.98-33.76 135.81-33.76 135.61-33.74L135.61-33.74ZM186.51-18.99L186.51-18.99 186.51-19.8Q188.95-20.07 190.69-20.78 192.42-21.48 193.54-22.58 194.67-23.68 195.19-25.17 195.72-26.66 195.72-28.49L195.72-28.49Q195.64-29.96 195.29-30.96 194.94-31.96 194.11-32.58 193.28-33.2 191.9-33.48 190.52-33.76 188.39-33.76L188.39-33.76Q187.61-33.76 186.75-33.73 185.88-33.69 184.88-33.64L184.88-33.64Q185.02-33.06 185.02-32.4L185.02-32.4 185.02-4.39Q185.02-3.39 185.21-2.69 185.39-1.98 185.83-1.49 186.27-1 187.01-0.7 187.76-0.39 188.88-0.2L188.88-0.2 188.66 0.39Q187.17 0.2 186.1 0.1 185.02 0 184.32 0L184.32 0Q183.66 0 182.8 0.1 181.95 0.2 180.92 0.39L180.92 0.39 180.78 0.15Q181.26-0.56 181.26-2.44L181.26-2.44 181.26-28.1Q181.26-29.71 181.12-30.8 180.97-31.88 180.58-32.54 180.19-33.2 179.48-33.48 178.77-33.76 176.97-33.74L176.97-33.74 176.87-34.45Q178.51-34.67 179.76-34.84 181.02-35.01 182.16-35.14 183.29-35.28 184.4-35.38 185.51-35.47 186.54-35.53 187.56-35.6 188.19-35.62 188.81-35.64 189.37-35.64L189.37-35.64Q191.59-35.64 193.48-35.31 195.38-34.99 196.76-34.17 198.13-33.35 198.9-31.96 199.67-30.57 199.67-28.44L199.67-28.44Q199.67-26.86 198.98-25.44 198.28-24.02 197.1-22.85 195.91-21.68 194.34-20.79 192.76-19.9 190.98-19.36L190.98-19.36 190.98-19.09 200.92-4.91Q202.21-3.03 204.26-2L204.26-2Q206.26-1.15 206.69-1 207.12-0.85 207.68-0.66L207.68-0.66 207.68-0.2Q203.36-0.2 200.43 0.71L200.43 0.71 200.06 0.49Q200.06 0.15 199.65-0.52 199.23-1.2 198.64-2.04 198.04-2.88 196.5-5.09 194.96-7.3 186.51-18.99ZM219.86-18.19L219.86-1.49 228.45-1.76Q230.24-1.81 231.46-2.17 232.68-2.54 233.56-3.21 234.44-3.88 235.09-4.87 235.75-5.86 236.41-7.15L236.41-7.15 237.12-6.86 234.7-0.34 234.31 0 216.56 0Q216.1-1 216.1-2.39L216.1-2.39 216.1-28.34Q216.1-29.96 215.95-30.99 215.81-32.03 215.42-32.65 215.03-33.28 214.33-33.52 213.63-33.76 212.54-33.76L212.54-33.76Q212.37-33.76 212.18-33.76 212-33.76 211.8-33.74L211.8-33.74 211.71-34.45Q218.66-35.55 227.04-35.55L227.04-35.55Q231.31-35.55 236-35.25L236-35.25 236.17-34.84 233.85-28.76 233.07-29Q233.26-29.93 233.36-30.71 233.46-31.49 233.46-32.24 233.46-32.98 233.26-33.64L233.26-33.64Q231.43-33.81 229.66-33.9 227.89-33.98 226.13-33.98L226.13-33.98Q222.94-33.98 219.86-33.69L219.86-33.69 219.86-19.9 233.22-20.63 233.46-20.36 232.31-18.36Q231.21-18.41 230.09-18.43 228.97-18.46 227.8-18.46L227.8-18.46Q225.89-18.46 223.91-18.38 221.94-18.31 219.86-18.19L219.86-18.19ZM241.34-0.49L256.26-33.84Q257.09-34.35 258.16-35.79L258.16-35.79 258.41-35.79 271.86-3.39Q272.76-1.22 275.55-0.34L275.55-0.34 275.55 0.1Q273.96-0.07 271.74 0.04 269.52 0.15 267.81 0.44L267.81 0.44 267.61 0.2Q268.1-0.44 267.84-1.93 267.59-3.42 266.34-6.45L266.34-6.45 262.31-16.55Q255.14-16.67 250.45-16.5L250.45-16.5 244.81-3.39Q244.3-2.27 245.19-1.51 246.08-0.76 248.69-0.24L248.69-0.24 248.59 0.2Q244.35-0.12 241.66 0L241.66 0Q241.51-0.15 241.34-0.49L241.34-0.49ZM256.6-30.69L251.11-17.94Q254.65-17.85 261.7-17.94L261.7-17.94 256.6-30.69ZM286.41-32.54L286.41-32.54 286.41-2.15Q287.73-1.98 288.95-1.89 290.17-1.81 291.34-1.81L291.34-1.81Q295.47-1.81 298.74-2.87 302.01-3.93 304.28-6.09 306.55-8.25 307.76-11.49 308.97-14.72 308.97-19.09L308.97-19.09Q308.94-21.97 308.23-24.19 307.53-26.42 306.26-28.06 304.99-29.71 303.27-30.82 301.55-31.93 299.53-32.63 297.52-33.33 295.28-33.62 293.05-33.91 290.75-33.91L290.75-33.91Q289.66-33.91 288.56-33.84 287.46-33.76 286.31-33.64L286.31-33.64Q286.36-33.3 286.38-33.02 286.41-32.74 286.41-32.54ZM278.35-33.74L278.25-34.45Q280.38-34.72 282.06-34.92 283.75-35.13 285.33-35.28 286.92-35.42 288.61-35.5 290.29-35.57 292.41-35.57L292.41-35.57Q294.25-35.57 295.76-35.47 297.27-35.38 298.63-35.14 299.98-34.91 301.29-34.53 302.59-34.16 304.04-33.62L304.04-33.62Q305.96-32.89 307.59-31.65 309.21-30.42 310.38-28.64 311.55-26.86 312.2-24.49 312.85-22.12 312.85-19.09L312.85-19.09Q312.82-15.5 311.92-12.7 311.02-9.89 309.41-7.76 307.8-5.64 305.59-4.15 303.38-2.66 300.79-1.73 298.2-0.81 295.32-0.39 292.44 0.02 289.48 0.02L289.48 0.02Q289.24 0.02 287.89 0.04 286.53 0.05 284.99 0.17 283.45 0.29 282.31 0.44L282.31 0.44 282.16 0.2Q282.65-0.51 282.65-2.39L282.65-2.39 282.65-28.1Q282.65-29.71 282.5-30.8 282.36-31.88 281.96-32.54 281.57-33.2 280.87-33.48 280.16-33.76 279.52-33.76 278.89-33.76 278.72-33.76 278.55-33.76 278.35-33.74L278.35-33.74ZM323.66-1.86L323.66-1.86Q326.35-0.49 328.96-0.49L328.96-0.49Q330.55-0.49 331.9-0.96 333.26-1.44 334.25-2.39 335.23-3.34 335.8-4.75 336.36-6.15 336.36-8.01L336.36-8.01Q336.36-9.4 336.06-10.44 335.77-11.47 334.94-12.46 334.11-13.45 332.62-14.58 331.13-15.7 328.72-17.26L328.72-17.26Q324.86-19.78 323.09-22.09 321.32-24.41 321.32-26.81L321.32-26.81Q321.32-29.15 322.29-30.92 323.27-32.69 324.87-33.87 326.47-35.06 328.48-35.66 330.5-36.25 332.57-36.25L332.57-36.25Q336.31-36.25 339.26-34.55L339.26-34.55Q338.58-30.76 336.87-27.2L336.87-27.2 336.21-27.54Q336.36-28.47 336.44-29.31 336.53-30.15 336.53-30.9 336.53-31.64 336.45-32.26 336.38-32.89 336.26-33.45L336.26-33.45Q334.31-34.59 332.06-34.59L332.06-34.59Q330.64-34.59 329.36-34.17 328.08-33.74 327.1-32.91 326.13-32.08 325.54-30.87 324.96-29.66 324.96-28.1L324.96-28.1Q324.96-27 325.35-26.05 325.74-25.1 326.55-24.15 327.37-23.19 328.61-22.17 329.84-21.14 331.52-19.9L331.52-19.9Q332.52-19.17 333.4-18.57 334.28-17.97 335.04-17.43 335.8-16.89 336.44-16.38 337.09-15.87 337.65-15.28L337.65-15.28Q340.36-12.43 340.36-8.64L340.36-8.64Q340.36-6.1 339.47-4.27 338.58-2.44 337.04-1.27 335.5-0.1 333.45 0.45 331.4 1 329.11 1L329.11 1Q324.98 1 320.66-0.66L320.66-0.66Q321.42-4.59 323.05-8.01L323.05-8.01 323.71-7.64Q323.42-6.27 323.42-4.3 323.42-2.32 323.66-1.86Z" opacity="1" transform="matrix(1,0,0,1,0,0)" fill="#ffffff" class="wordmark-text-0" data-fill-palette-color="primary" id="text-0"></path></svg></g></svg></g></svg></g></svg></g><g><svg viewBox="0 0 69.59184972771354 60.89286851174935" height="60.89286851174935" width="69.59184972771354"><g><svg xmlns="http://www.w3.org/2000/svg" xmlns:xlink="http://www.w3.org/1999/xlink" version="1.1" x="0" y="0" viewBox="0 0 100 87.5" style="enable-background:new 0 0 100 87.5;" xml:space="preserve" width="69.59184972771354" height="60.89286851174935" class="icon-icon-0" data-fill-palette-color="accent" id="icon-0"><path d="M50 12.5C50 12.5 37.5 0 0 0v75c37.891 0 50 12.5 50 12.5S62.109 75 100 75V0C62.5 0 50 12.5 50 12.5zM12.5 12.5c15.888 1.33 25.635 5.005 31.25 7.983v50.342c-5.615-2.966-15.362-6.641-31.25-7.983V12.5zM87.5 62.842c-15.894 1.343-25.641 5.018-31.25 7.983V20.483c5.609-2.979 15.356-6.653 31.25-7.983V62.842z" fill="#ffffff" data-fill-palette-color="accent"></path></svg></g></svg></g></svg></g></svg></g></svg></g><defs></defs></svg><rect width="395.52" height="247.2" fill="none" stroke="none" visibility="hidden"></rect></g></svg></g></svg>